<svg width="30" height="20" viewBox="0 0 30 20" fill="none" xmlns="http://www.w3.org/2000/svg">
<path d="M25.5 0.5H4.5C3.30693 0.501323 2.16311 0.975854 1.31948 1.81948C0.475854 2.66311 0.00132343 3.80693 0 5V15.5C0.00132343 16.6931 0.475854 17.8369 1.31948 18.6805C2.16311 19.5241 3.30693 19.9987 4.5 20H25.5C26.6931 19.9987 27.8369 19.5241 28.6805 18.6805C29.5241 17.8369 29.9987 16.6931 30 15.5V5C29.9987 3.80693 29.5241 2.66311 28.6805 1.81948C27.8369 0.975854 26.6931 0.501323 25.5 0.5ZM29 15.5C28.9989 16.4279 28.6299 17.3176 27.9737 17.9737C27.3176 18.6299 26.4279 18.9989 25.5 19H4.5C3.57207 18.9989 2.68244 18.6299 2.0263 17.9737C1.37015 17.3176 1.00106 16.4279 1 15.5V5C1.00106 4.07207 1.37015 3.18244 2.0263 2.5263C2.68244 1.87015 3.57207 1.50106 4.5 1.5H25.5C26.4279 1.50106 27.3176 1.87015 27.9737 2.5263C28.6299 3.18244 28.9989 4.07207 29 5V15.5Z" fill="black"/>
<path d="M26 13.5H23C22.6022 13.5 22.2206 13.658 21.9393 13.9393C21.658 14.2206 21.5 14.6022 21.5 15V16C21.5 16.3978 21.658 16.7794 21.9393 17.0607C22.2206 17.342 22.6022 17.5 23 17.5H26C26.3978 17.5 26.7794 17.342 27.0607 17.0607C27.342 16.7794 27.5 16.3978 27.5 16V15C27.5 14.6022 27.342 14.2206 27.0607 13.9393C26.7794 13.658 26.3978 13.5 26 13.5ZM26.5 16C26.5 16.1326 26.4473 16.2598 26.3536 16.3536C26.2598 16.4473 26.1326 16.5 26 16.5H23C22.8674 16.5 22.7402 16.4473 22.6464 16.3536C22.5527 16.2598 22.5 16.1326 22.5 16V15C22.5 14.8674 22.5527 14.7402 22.6464 14.6464C22.7402 14.5527 22.8674 14.5 23 14.5H26C26.1326 14.5 26.2598 14.5527 26.3536 14.6464C26.4473 14.7402 26.5 14.8674 26.5 15V16Z" fill="black"/>
<path d="M7.5 12C7.5 11.8674 7.44732 11.7402 7.35355 11.6464C7.25979 11.5527 7.13261 11.5 7 11.5H3.5C3.36739 11.5 3.24021 11.5527 3.14645 11.6464C3.05268 11.7402 3 11.8674 3 12C3 12.1326 3.05268 12.2598 3.14645 12.3536C3.24021 12.4473 3.36739 12.5 3.5 12.5H7C7.13261 12.5 7.25979 12.4473 7.35355 12.3536C7.44732 12.2598 7.5 12.1326 7.5 12Z" fill="black"/>
<path d="M13 12C13 11.8674 12.9473 11.7402 12.8536 11.6464C12.7598 11.5527 12.6326 11.5 12.5 11.5H9C8.86739 11.5 8.74021 11.5527 8.64645 11.6464C8.55268 11.7402 8.5 11.8674 8.5 12C8.5 12.1326 8.55268 12.2598 8.64645 12.3536C8.74021 12.4473 8.86739 12.5 9 12.5H12.5C12.6326 12.5 12.7598 12.4473 12.8536 12.3536C12.9473 12.2598 13 12.1326 13 12Z" fill="black"/>
<path d="M18 11.5H14.5C14.3674 11.5 14.2402 11.5527 14.1464 11.6464C14.0527 11.7402 14 11.8674 14 12C14 12.1326 14.0527 12.2598 14.1464 12.3536C14.2402 12.4473 14.3674 12.5 14.5 12.5H18C18.1326 12.5 18.2598 12.4473 18.3536 12.3536C18.4473 12.2598 18.5 12.1326 18.5 12C18.5 11.8674 18.4473 11.7402 18.3536 11.6464C18.2598 11.5527 18.1326 11.5 18 11.5Z" fill="black"/>
<path d="M24 12C24 11.8674 23.9473 11.7402 23.8536 11.6464C23.7598 11.5527 23.6326 11.5 23.5 11.5H20C19.8674 11.5 19.7402 11.5527 19.6464 11.6464C19.5527 11.7402 19.5 11.8674 19.5 12C19.5 12.1326 19.5527 12.2598 19.6464 12.3536C19.7402 12.4473 19.8674 12.5 20 12.5H23.5C23.6326 12.5 23.7598 12.4473 23.8536 12.3536C23.9473 12.2598 24 12.1326 24 12Z" fill="black"/>
<path d="M8.5 16H5C4.86739 16 4.74021 16.0527 4.64645 16.1464C4.55268 16.2402 4.5 16.3674 4.5 16.5C4.5 16.6326 4.55268 16.7598 4.64645 16.8536C4.74021 16.9473 4.86739 17 5 17H8.5C8.63261 17 8.75979 16.9473 8.85355 16.8536C8.94732 16.7598 9 16.6326 9 16.5C9 16.3674 8.94732 16.2402 8.85355 16.1464C8.75979 16.0527 8.63261 16 8.5 16Z" fill="black"/>
<path d="M15 16H11.5C11.3674 16 11.2402 16.0527 11.1464 16.1464C11.0527 16.2402 11 16.3674 11 16.5C11 16.6326 11.0527 16.7598 11.1464 16.8536C11.2402 16.9473 11.3674 17 11.5 17H15C15.1326 17 15.2598 16.9473 15.3536 16.8536C15.4473 16.7598 15.5 16.6326 15.5 16.5C15.5 16.3674 15.4473 16.2402 15.3536 16.1464C15.2598 16.0527 15.1326 16 15 16Z" fill="black"/>
<path d="M4 7.5H7C7.26522 7.5 7.51957 7.39464 7.70711 7.20711C7.89464 7.01957 8 6.76522 8 6.5V4.5C8 4.23478 7.89464 3.98043 7.70711 3.79289C7.51957 3.60536 7.26522 3.5 7 3.5H4C3.73478 3.5 3.48043 3.60536 3.29289 3.79289C3.10536 3.98043 3 4.23478 3 4.5V6.5C3 6.76522 3.10536 7.01957 3.29289 7.20711C3.48043 7.39464 3.73478 7.5 4 7.5ZM6 6.5V6H7V6.5H6ZM7 5H6V4.5H7V5ZM4 4.5H5V6.5H4V4.5Z" fill="black"/>
<path d="M24.0251 4.93944C24.1644 4.80012 24.3297 4.68961 24.5118 4.61421C24.6938 4.53882 24.8888 4.50001 25.0858 4.50001C25.2828 4.50001 25.4779 4.53882 25.6599 4.61421C25.8419 4.68961 26.0073 4.80012 26.1466 4.93944C26.2409 5.03052 26.3672 5.08092 26.4983 5.07978C26.6294 5.07864 26.7548 5.02605 26.8475 4.93335C26.9402 4.84064 26.9928 4.71524 26.9939 4.58414C26.9951 4.45304 26.9447 4.32674 26.8536 4.23244C26.3844 3.76434 25.7486 3.50146 25.0858 3.50146C24.423 3.50146 23.7873 3.76434 23.3181 4.23244C23.227 4.32674 23.1766 4.45304 23.1778 4.58414C23.1789 4.71524 23.2315 4.84064 23.3242 4.93335C23.4169 5.02605 23.5423 5.07864 23.6734 5.07978C23.8045 5.08092 23.9308 5.03052 24.0251 4.93944Z" fill="black"/>
<path d="M24.0251 5.64671C23.934 5.74101 23.8836 5.86731 23.8848 5.99841C23.8859 6.1295 23.9385 6.25491 24.0312 6.34761C24.1239 6.44032 24.2493 6.4929 24.3804 6.49404C24.5115 6.49518 24.6378 6.44478 24.7321 6.3537C24.7786 6.30722 24.8337 6.27034 24.8944 6.24517C24.9551 6.22001 25.0202 6.20706 25.0859 6.20706C25.1516 6.20706 25.2166 6.22001 25.2773 6.24517C25.338 6.27034 25.3932 6.30722 25.4396 6.3537C25.5339 6.44478 25.6602 6.49518 25.7913 6.49404C25.9224 6.4929 26.0478 6.44032 26.1405 6.34761C26.2332 6.25491 26.2858 6.1295 26.287 5.99841C26.2881 5.86731 26.2377 5.74101 26.1466 5.64671C26.0073 5.50739 25.842 5.39688 25.66 5.32148C25.4779 5.24608 25.2829 5.20728 25.0859 5.20728C24.8889 5.20728 24.6938 5.24608 24.5118 5.32148C24.3298 5.39688 24.1644 5.50739 24.0251 5.64671V5.64671Z" fill="black"/>
<path d="M10 4H16.5C16.6326 4 16.7598 3.94732 16.8536 3.85355C16.9473 3.75979 17 3.63261 17 3.5C17 3.36739 16.9473 3.24021 16.8536 3.14645C16.7598 3.05268 16.6326 3 16.5 3H10C9.86739 3 9.74021 3.05268 9.64645 3.14645C9.55268 3.24021 9.5 3.36739 9.5 3.5C9.5 3.63261 9.55268 3.75979 9.64645 3.85355C9.74021 3.94732 9.86739 4 10 4Z" fill="black"/>
<path d="M20.5 3.5C20.5 3.36739 20.4473 3.24021 20.3536 3.14645C20.2598 3.05268 20.1326 3 20 3H18.5C18.3674 3 18.2402 3.05268 18.1464 3.14645C18.0527 3.24021 18 3.36739 18 3.5C18 3.63261 18.0527 3.75979 18.1464 3.85355C18.2402 3.94732 18.3674 4 18.5 4H20C20.1326 4 20.2598 3.94732 20.3536 3.85355C20.4473 3.75979 20.5 3.63261 20.5 3.5Z" fill="black"/>
</svg>
