<svg width="20" height="20" viewBox="0 0 20 20" fill="none" xmlns="http://www.w3.org/2000/svg">
<path d="M10 0C4.45455 0 0 4.45455 0 10C0 15.5455 4.45455 20 10 20C15.5455 20 20 15.5455 20 10C20 4.45455 15.5455 0 10 0ZM15.7727 6.86364L8.5 14.4091C8.40909 14.5 8.31818 14.5455 8.18182 14.5455C8.04545 14.5455 7.90909 14.5 7.86364 14.4091L4.31818 10.5909L4.22727 10.5C4.13636 10.4091 4.09091 10.2727 4.09091 10.1818C4.09091 10.0909 4.13636 9.95455 4.22727 9.86364L4.86364 9.22727C5.04545 9.04545 5.31818 9.04545 5.5 9.22727L5.54545 9.27273L8.04545 11.9545C8.13636 12.0455 8.27273 12.0455 8.36364 11.9545L14.4545 5.63636H14.5C14.6818 5.45455 14.9545 5.45455 15.1364 5.63636L15.7727 6.27273C15.9545 6.40909 15.9545 6.68182 15.7727 6.86364Z" fill="url(#paint0_linear_369_245)"/>
<defs>
<linearGradient id="paint0_linear_369_245" x1="20" y1="20" x2="0.18868" y2="20" gradientUnits="userSpaceOnUse">
<stop stop-color="#8EE901"/>
<stop offset="1" stop-color="#4F9C2C"/>
</linearGradient>
</defs>
</svg>
