<svg width="48" height="48" viewBox="0 0 48 48" fill="none" xmlns="http://www.w3.org/2000/svg">
<g clip-path="url(#clip0_944_1183)">
<path d="M48.0012 24.0001C48.0012 31.9239 41.6012 38.4001 33.6012 38.4001C25.6774 38.4001 19.2012 31.9239 19.2012 24.0001C19.2012 16.0763 25.6012 9.6001 33.525 9.6001C41.6012 9.6001 48.0012 16.0763 48.0012 24.0001Z" fill="#FFB600"/>
<path d="M33.6012 9.6001C41.525 9.6001 48.0012 16.0763 48.0012 24.0001C48.0012 31.9239 41.6012 38.4001 33.6012 38.4001C25.6774 38.4001 19.2012 31.9239 19.2012 24.0001" fill="#F7981D"/>
<path d="M33.5996 9.6001C41.5234 9.6001 47.9996 16.0763 47.9996 24.0001C47.9996 31.9239 41.5996 38.4001 33.5996 38.4001" fill="#FF8500"/>
<path d="M14.2476 9.6001C6.4 9.67629 0 16.0763 0 24.0001C0 31.9239 6.4 38.4001 14.4 38.4001C18.1333 38.4001 21.4857 36.9525 24.0762 34.6668C24.6095 34.2096 25.0667 33.6763 25.5238 33.143H22.5524C22.1714 32.6858 21.7905 32.1525 21.4857 31.6953H26.5905C26.8952 31.2382 27.2 30.7049 27.4286 30.1715H20.6476C20.419 29.7144 20.1905 29.181 20.0381 28.6477H27.9619C28.419 27.2001 28.7238 25.6763 28.7238 24.0763C28.7238 23.0096 28.5714 22.0191 28.419 21.0287H19.581C19.6571 20.4953 19.8095 20.0382 19.9619 19.5049H27.8857C27.7333 18.9715 27.5048 18.4382 27.2762 17.981H20.5714C20.8 17.4477 21.1048 16.9906 21.4095 16.4572H26.5143C26.2095 15.9239 25.8286 15.3906 25.3714 14.9334H22.5524C23.0095 14.4001 23.4667 13.943 24 13.4858C21.4857 11.1239 18.0571 9.75248 14.3238 9.75248C14.3238 9.6001 14.3238 9.6001 14.2476 9.6001Z" fill="#FF5050"/>
<path d="M0 24.0001C0 31.9239 6.4 38.4001 14.4 38.4001C18.1333 38.4001 21.4857 36.9524 24.0762 34.6667C24.6095 34.2096 25.0667 33.6762 25.5238 33.1429H22.5524C22.1714 32.6858 21.7905 32.1524 21.4857 31.6953H26.5905C26.8952 31.2381 27.2 30.7048 27.4286 30.1715H20.6476C20.419 29.7143 20.1905 29.181 20.0381 28.6477H27.9619C28.419 27.2001 28.7238 25.6762 28.7238 24.0762C28.7238 23.0096 28.5714 22.0191 28.419 21.0286H19.581C19.6571 20.4953 19.8095 20.0382 19.9619 19.5048H27.8857C27.7333 18.9715 27.5048 18.4382 27.2762 17.981H20.5714C20.8 17.4477 21.1048 16.9905 21.4095 16.4572H26.5143C26.2095 15.9239 25.8286 15.3905 25.3714 14.9334H22.5524C23.0095 14.4001 23.4667 13.9429 24 13.4858C21.4857 11.1239 18.0571 9.75244 14.3238 9.75244H14.2476" fill="#E52836"/>
<path d="M14.3985 38.4001C18.1318 38.4001 21.4842 36.9524 24.0747 34.6667C24.608 34.2096 25.0651 33.6762 25.5223 33.1429H22.5509C22.1699 32.6858 21.789 32.1524 21.4842 31.6953H26.589C26.8937 31.2381 27.1985 30.7048 27.427 30.1715H20.6461C20.4175 29.7143 20.189 29.181 20.0366 28.6477H27.9604C28.4175 27.2001 28.7223 25.6762 28.7223 24.0762C28.7223 23.0096 28.5699 22.0191 28.4175 21.0286H19.5794C19.6556 20.4953 19.808 20.0382 19.9604 19.5048H27.8842C27.7318 18.9715 27.5032 18.4382 27.2747 17.981H20.5699C20.7985 17.4477 21.1032 16.9905 21.408 16.4572H26.5128C26.208 15.9239 25.827 15.3905 25.3699 14.9334H22.5509C23.008 14.4001 23.4651 13.9429 23.9985 13.4858C21.4842 11.1239 18.0556 9.75244 14.3223 9.75244H14.2461" fill="#CB2026"/>
<path d="M19.5064 27.6569L19.735 26.3617C19.6588 26.3617 19.5064 26.4379 19.354 26.4379C18.8207 26.4379 18.7445 26.1331 18.8207 25.9807L19.2778 23.3141H20.1159L20.3445 21.8664H19.5826L19.735 20.9521H18.2112C18.2112 20.9521 17.2969 25.9807 17.2969 26.5902C17.2969 27.5045 17.8302 27.8855 18.5159 27.8855C18.9731 27.8855 19.354 27.7331 19.5064 27.6569Z" fill="white"/>
<path d="M20.0391 25.219C20.0391 27.3523 21.4867 27.8856 22.7057 27.8856C23.8486 27.8856 24.3057 27.6571 24.3057 27.6571L24.6105 26.2094C24.6105 26.2094 23.7724 26.5904 23.0105 26.5904C21.3343 26.5904 21.6391 25.3714 21.6391 25.3714H24.7629C24.7629 25.3714 24.9914 24.3809 24.9914 23.9999C24.9914 23.0094 24.4581 21.7904 22.7819 21.7904C21.1819 21.638 20.0391 23.3142 20.0391 25.219ZM22.7057 23.0095C23.5438 23.0095 23.3914 23.9999 23.3914 24.0761H21.7153C21.7153 23.9999 21.8676 23.0095 22.7057 23.0095Z" fill="white"/>
<path d="M32.3819 27.6571L32.6866 25.9809C32.6866 25.9809 31.9247 26.3618 31.3914 26.3618C30.3247 26.3618 29.8676 25.5237 29.8676 24.6095C29.8676 22.7809 30.7819 21.7904 31.8485 21.7904C32.6105 21.7904 33.22 22.2476 33.22 22.2476L33.4486 20.6476C33.4486 20.6476 32.5343 20.2666 31.6962 20.2666C29.9438 20.2666 28.1914 21.7904 28.1914 24.6856C28.1914 26.5904 29.1057 27.8856 30.9343 27.8856C31.5438 27.8856 32.3819 27.6571 32.3819 27.6571Z" fill="white"/>
<path d="M11.1257 21.6382C10.059 21.6382 9.29714 21.9429 9.29714 21.9429L9.06856 23.2382C9.06856 23.2382 9.75428 22.9334 10.7448 22.9334C11.2781 22.9334 11.7352 23.0096 11.7352 23.4668C11.7352 23.7715 11.659 23.8477 11.659 23.8477C11.659 23.8477 11.2019 23.8477 10.9733 23.8477C9.67809 23.8477 8.23047 24.381 8.23047 26.1334C8.23047 27.5049 9.14475 27.8096 9.67809 27.8096C10.7448 27.8096 11.2019 27.1239 11.2781 27.1239L11.2019 27.7334H12.5733L13.1828 23.5429C13.1828 21.7144 11.659 21.6382 11.1257 21.6382ZM11.4305 25.0668C11.4305 25.2953 11.2781 26.5144 10.3638 26.5144C9.90666 26.5144 9.75428 26.1334 9.75428 25.9049C9.75428 25.5239 9.98285 24.9906 11.1257 24.9906C11.3543 25.0668 11.4305 25.0668 11.4305 25.0668Z" fill="white"/>
<path d="M14.6293 27.8096C15.0103 27.8096 16.915 27.8858 16.915 25.8287C16.915 23.9239 15.0865 24.3049 15.0865 23.543C15.0865 23.162 15.3912 23.0096 15.9246 23.0096C16.1531 23.0096 16.9912 23.0858 16.9912 23.0858L17.2198 21.7144C17.2198 21.7144 16.6865 21.562 15.7722 21.562C14.6293 21.562 13.4865 22.0192 13.4865 23.543C13.4865 25.2953 15.3912 25.143 15.3912 25.8287C15.3912 26.2858 14.8579 26.362 14.477 26.362C13.7912 26.362 13.1055 26.1334 13.1055 26.1334L12.877 27.5049C12.9531 27.6572 13.3341 27.8096 14.6293 27.8096Z" fill="white"/>
<path d="M45.0304 20.4189L44.7256 22.4761C44.7256 22.4761 44.1161 21.7142 43.278 21.7142C41.9065 21.7142 40.6875 23.3904 40.6875 25.3713C40.6875 26.5904 41.297 27.8856 42.5923 27.8856C43.5065 27.8856 44.0399 27.2761 44.0399 27.2761L43.9637 27.8094H45.4875L46.6304 20.4951L45.0304 20.4189ZM44.3446 24.457C44.3446 25.2951 43.9637 26.3618 43.1256 26.3618C42.5923 26.3618 42.2875 25.9047 42.2875 25.1428C42.2875 23.9237 42.8208 23.1618 43.5065 23.1618C44.0399 23.1618 44.3446 23.5428 44.3446 24.457Z" fill="white"/>
<path d="M2.82067 27.7332L3.73495 22.2475L3.88733 27.7332H4.954L6.93495 22.2475L6.09686 27.7332H7.69686L8.9159 20.4189H6.40162L4.87781 24.9142L4.80162 20.4189H2.59209L1.37305 27.7332H2.82067Z" fill="white"/>
<path d="M26.4379 27.7334C26.8951 25.2191 26.9712 23.162 28.0379 23.5429C28.1903 22.5524 28.4189 22.1715 28.5712 21.7905C28.5712 21.7905 28.495 21.7905 28.2665 21.7905C27.5808 21.7905 27.0474 22.7048 27.0474 22.7048L27.1998 21.8667H25.7522L24.7617 27.8096H26.4379V27.7334Z" fill="white"/>
<path d="M35.8874 21.6382C34.8208 21.6382 34.0589 21.9429 34.0589 21.9429L33.8303 23.2382C33.8303 23.2382 34.516 22.9334 35.5065 22.9334C36.0398 22.9334 36.4969 23.0096 36.4969 23.4668C36.4969 23.7715 36.4208 23.8477 36.4208 23.8477C36.4208 23.8477 35.9636 23.8477 35.735 23.8477C34.4398 23.8477 32.9922 24.381 32.9922 26.1334C32.9922 27.5049 33.9065 27.8096 34.4398 27.8096C35.5065 27.8096 35.9636 27.1239 36.0398 27.1239L35.9636 27.7334H37.335L37.9446 23.5429C38.0208 21.7144 36.4208 21.6382 35.8874 21.6382ZM36.2684 25.0668C36.2684 25.2953 36.116 26.5144 35.2017 26.5144C34.7446 26.5144 34.5922 26.1334 34.5922 25.9049C34.5922 25.5239 34.8208 24.9906 35.9636 24.9906C36.1922 25.0668 36.1922 25.0668 36.2684 25.0668Z" fill="white"/>
<path d="M39.2387 27.7334C39.6958 25.2191 39.772 23.162 40.8387 23.5429C40.9911 22.5524 41.2197 22.1715 41.372 21.7905C41.372 21.7905 41.2958 21.7905 41.0673 21.7905C40.3816 21.7905 39.8482 22.7048 39.8482 22.7048L40.0006 21.8667H38.553L37.5625 27.8096H39.2387V27.7334Z" fill="white"/>
<path d="M17.1445 26.5902C17.1445 27.5045 17.6779 27.8855 18.3636 27.8855C18.8969 27.8855 19.3541 27.7331 19.5064 27.6569L19.735 26.3617C19.6588 26.3617 19.5064 26.4379 19.3541 26.4379C18.8207 26.4379 18.7445 26.1331 18.8207 25.9807L19.2779 23.3141H20.116L20.3445 21.8664H19.5826L19.735 20.9521" fill="#DCE5E5"/>
<path d="M20.8027 25.219C20.8027 27.3523 21.4884 27.8856 22.7075 27.8856C23.8504 27.8856 24.3075 27.6571 24.3075 27.6571L24.6123 26.2094C24.6123 26.2094 23.7742 26.5904 23.0123 26.5904C21.3361 26.5904 21.6408 25.3714 21.6408 25.3714H24.7646C24.7646 25.3714 24.9932 24.3809 24.9932 23.9999C24.9932 23.0094 24.4599 21.7904 22.7837 21.7904C21.1837 21.638 20.8027 23.3142 20.8027 25.219ZM22.7075 23.0095C23.5456 23.0095 23.698 23.9999 23.698 24.0761H21.717C21.717 23.9999 21.8694 23.0095 22.7075 23.0095Z" fill="#DCE5E5"/>
<path d="M32.3817 27.6571L32.6865 25.9809C32.6865 25.9809 31.9246 26.3618 31.3912 26.3618C30.3246 26.3618 29.8674 25.5237 29.8674 24.6095C29.8674 22.7809 30.7817 21.7904 31.8484 21.7904C32.6103 21.7904 33.2198 22.2476 33.2198 22.2476L33.4484 20.6476C33.4484 20.6476 32.5341 20.2666 31.696 20.2666C29.9436 20.2666 28.9531 21.7904 28.9531 24.6856C28.9531 26.5904 29.1055 27.8856 30.9341 27.8856C31.5436 27.8856 32.3817 27.6571 32.3817 27.6571Z" fill="#DCE5E5"/>
<path d="M9.06856 23.3143C9.06856 23.3143 9.75428 23.0096 10.7448 23.0096C11.2781 23.0096 11.7352 23.0858 11.7352 23.5429C11.7352 23.8477 11.659 23.9239 11.659 23.9239C11.659 23.9239 11.2019 23.9239 10.9733 23.9239C9.67809 23.9239 8.23047 24.4572 8.23047 26.2096C8.23047 27.581 9.14475 27.8858 9.67809 27.8858C10.7448 27.8858 11.2019 27.2001 11.2781 27.2001L11.2019 27.8096H12.5733L13.1828 23.6191C13.1828 21.8667 11.659 21.7905 11.0495 21.7905L9.06856 23.3143ZM12.1924 25.0667C12.1924 25.2953 11.2781 26.5143 10.3638 26.5143C9.90666 26.5143 9.75428 26.1334 9.75428 25.9048C9.75428 25.5239 9.98285 24.9905 11.1257 24.9905C11.3543 25.0667 12.1924 25.0667 12.1924 25.0667Z" fill="#DCE5E5"/>
<path d="M12.9531 27.6572C12.9531 27.6572 13.4103 27.8096 14.7055 27.8096C15.0865 27.8096 16.9912 27.8858 16.9912 25.8287C16.9912 23.9239 15.1626 24.3049 15.1626 23.543C15.1626 23.162 15.4674 23.0096 16.0007 23.0096C16.2293 23.0096 17.0674 23.0858 17.0674 23.0858L17.296 21.7144C17.296 21.7144 16.7626 21.562 15.8484 21.562C14.7055 21.562 14.3246 22.0192 14.3246 23.543C14.3246 25.2953 15.4674 25.143 15.4674 25.8287C15.4674 26.2858 14.9341 26.362 14.5531 26.362" fill="#DCE5E5"/>
<path d="M44.7251 22.4761C44.7251 22.4761 44.1156 21.7142 43.2775 21.7142C41.906 21.7142 41.4489 23.3904 41.4489 25.3713C41.4489 26.5903 41.2965 27.8856 42.5917 27.8856C43.506 27.8856 44.0394 27.2761 44.0394 27.2761L43.9632 27.8094H45.487L46.6298 20.4951L44.7251 22.4761ZM44.6489 24.457C44.6489 25.2951 43.9632 26.3618 43.1251 26.3618C42.5917 26.3618 42.287 25.9046 42.287 25.1427C42.287 23.9237 42.8203 23.1618 43.506 23.1618C44.0394 23.1618 44.6489 23.5427 44.6489 24.457Z" fill="#DCE5E5"/>
<path d="M2.82067 27.7332L3.73495 22.2475L3.88733 27.7332H4.954L6.93495 22.2475L6.09686 27.7332H7.69686L8.9159 20.4189H7.01114L4.87781 24.9142L4.80162 20.4189H3.96352L1.37305 27.7332H2.82067Z" fill="#DCE5E5"/>
<path d="M24.8398 27.7334H26.4398C26.897 25.2191 26.9732 23.162 28.0398 23.5429C28.1922 22.5524 28.4208 22.1715 28.5732 21.7905C28.5732 21.7905 28.497 21.7905 28.2684 21.7905C27.5827 21.7905 27.0494 22.7048 27.0494 22.7048L27.2017 21.8667" fill="#DCE5E5"/>
<path d="M33.8303 23.3143C33.8303 23.3143 34.516 23.0096 35.5065 23.0096C36.0398 23.0096 36.497 23.0858 36.497 23.5429C36.497 23.8477 36.4208 23.9239 36.4208 23.9239C36.4208 23.9239 35.9636 23.9239 35.735 23.9239C34.4398 23.9239 32.9922 24.4572 32.9922 26.2096C32.9922 27.581 33.9065 27.8858 34.4398 27.8858C35.5065 27.8858 35.9636 27.2001 36.0398 27.2001L35.9636 27.8096H37.335L37.9446 23.6191C37.9446 21.8667 36.4208 21.7905 35.8112 21.7905L33.8303 23.3143ZM36.9541 25.0667C36.9541 25.2953 36.0398 26.5143 35.1255 26.5143C34.6684 26.5143 34.516 26.1334 34.516 25.9048C34.516 25.5239 34.7446 24.9905 35.8874 24.9905C36.1922 25.0667 36.9541 25.0667 36.9541 25.0667Z" fill="#DCE5E5"/>
<path d="M37.6406 27.7334H39.2406C39.6978 25.2191 39.774 23.162 40.8406 23.5429C40.993 22.5524 41.2216 22.1715 41.374 21.7905C41.374 21.7905 41.2978 21.7905 41.0692 21.7905C40.3835 21.7905 39.8501 22.7048 39.8501 22.7048L40.0025 21.8667" fill="#DCE5E5"/>
</g>
<defs>
<clipPath id="clip0_944_1183">
<rect width="48" height="48" fill="white"/>
</clipPath>
</defs>
</svg>
