<svg width="20" height="20" viewBox="0 0 20 20" fill="none" xmlns="http://www.w3.org/2000/svg">
<path d="M4.04059 19.5278C3.96649 19.5278 3.89238 19.5049 3.83009 19.4594C3.71983 19.3792 3.6647 19.2435 3.68797 19.1093L4.79452 12.659L0.108036 8.09132C0.010662 7.99609 -0.0244213 7.85397 0.0174639 7.72473C0.059707 7.59514 0.171759 7.50063 0.306722 7.48094L6.78282 6.53978L9.67934 0.671196C9.73948 0.548762 9.86407 0.471436 10.0001 0.471436C10.1365 0.471436 10.2611 0.548762 10.3209 0.671196L13.217 6.53978L19.6935 7.48094C19.8284 7.50063 19.9401 7.59478 19.9827 7.72473C20.0246 7.85397 19.9899 7.99645 19.8922 8.09132L15.2057 12.6597L16.3119 19.1096C16.3348 19.2439 16.2797 19.3796 16.1698 19.4598C16.0595 19.5407 15.9131 19.551 15.7924 19.487L10.0001 16.4419L4.20706 19.487C4.15479 19.5142 4.09751 19.5278 4.04059 19.5278ZM1.12724 8.08488L5.42889 12.278C5.51302 12.36 5.55168 12.4789 5.53163 12.5949L4.51601 18.5154L9.83364 15.7202C9.93781 15.665 10.062 15.665 10.1669 15.7202L15.4838 18.5154L14.4686 12.5949C14.4485 12.4789 14.4872 12.3604 14.5713 12.278L18.873 8.08488L12.9285 7.22104C12.8118 7.20421 12.7112 7.13082 12.6589 7.02522L10.0001 1.63885L7.34129 7.02557C7.28902 7.13118 7.18842 7.20457 7.07172 7.2214L1.12724 8.08488Z" fill="black"/>
</svg>
