<svg width="32" height="32" viewBox="0 0 32 32" fill="none" xmlns="http://www.w3.org/2000/svg">
<path d="M16 32C24.8366 32 32 24.8366 32 16C32 7.16344 24.8366 0 16 0C7.16344 0 0 7.16344 0 16C0 24.8366 7.16344 32 16 32Z" fill="#4D76A1"/>
<path fill-rule="evenodd" clip-rule="evenodd" d="M15.3962 23.0173H16.652C16.652 23.0173 17.0313 22.9757 17.225 22.7669C17.4032 22.5752 17.3975 22.2153 17.3975 22.2153C17.3975 22.2153 17.373 20.5302 18.1551 20.2821C18.926 20.0377 19.916 21.9107 20.9653 22.6308C21.7588 23.1759 22.3617 23.0564 22.3617 23.0564L25.1674 23.0173C25.1674 23.0173 26.6351 22.9269 25.9392 21.7729C25.8821 21.6785 25.5339 20.9193 23.8531 19.3591C22.0939 17.7263 22.3295 17.9904 24.4486 15.1659C25.7392 13.4458 26.2552 12.3956 26.094 11.9458C25.9403 11.5174 24.9911 11.6307 24.9911 11.6307L21.8321 11.6503C21.8321 11.6503 21.5979 11.6184 21.4242 11.7222C21.2545 11.824 21.1453 12.0613 21.1453 12.0613C21.1453 12.0613 20.6453 13.3924 19.9785 14.5244C18.5718 16.9131 18.0093 17.0392 17.7794 16.8909C17.2447 16.5452 17.3782 15.5022 17.3782 14.7612C17.3782 12.4464 17.7292 11.4812 16.6945 11.2314C16.3511 11.1484 16.0984 11.0936 15.2202 11.0848C14.093 11.0731 13.139 11.0882 12.5988 11.3529C12.2394 11.5288 11.9622 11.921 12.131 11.9435C12.3398 11.9715 12.8127 12.071 13.0634 12.4124C13.3871 12.8528 13.3757 13.8419 13.3757 13.8419C13.3757 13.8419 13.5617 16.5669 12.9413 16.9054C12.5155 17.1376 11.9314 16.6636 10.6773 14.4965C10.0347 13.3864 9.54956 12.1594 9.54956 12.1594C9.54956 12.1594 9.45601 11.9301 9.28916 11.8075C9.08666 11.6589 8.80373 11.6115 8.80373 11.6115L5.80184 11.6312C5.80184 11.6312 5.3512 11.6438 5.18577 11.8397C5.0386 12.014 5.17408 12.3745 5.17408 12.3745C5.17408 12.3745 7.52425 17.8729 10.1853 20.6437C12.6253 23.1842 15.3962 23.0173 15.3962 23.0173Z" fill="white"/>
</svg>
