<svg width="28" height="28" viewBox="0 0 28 28" fill="none" xmlns="http://www.w3.org/2000/svg">
<g clip-path="url(#clip0_256_2449)">
<circle cx="14" cy="14" r="14" fill="#4CAF50"/>
<path d="M20.6746 16.4002C20.6746 16.4002 19.2455 15.7002 18.3506 15.2335C17.338 14.712 16.148 15.6885 15.588 16.2439C14.7164 15.9091 13.9204 15.4038 13.2465 14.7575C12.6001 14.0837 12.0948 13.2877 11.7601 12.416C12.3155 11.8549 13.2896 10.666 12.7705 9.65339C12.3096 8.75739 11.6038 7.32939 11.6038 7.32824C11.5048 7.13169 11.3036 7.0076 11.0835 7.00739H9.91684C8.21781 7.30084 6.98247 8.78331 7.00019 10.5074C7.00019 12.339 9.19234 15.8577 10.6705 17.337C12.1487 18.8163 15.6674 21.0074 17.5002 21.0074C19.2243 21.0251 20.7067 19.7897 21.0002 18.0907V16.9241C21.0004 16.7016 20.8741 16.4985 20.6746 16.4002Z" fill="#FAFAFA"/>
</g>
<defs>
<clipPath id="clip0_256_2449">
<rect width="28" height="28" fill="white"/>
</clipPath>
</defs>
</svg>
