<svg width="32" height="32" viewBox="0 0 32 32" fill="none" xmlns="http://www.w3.org/2000/svg">
<path d="M15.9999 0C24.837 0 32 7.164 32 16.0001C32 24.8361 24.837 32 15.9999 32C7.1629 32 0 24.836 0 16.0001C0 7.16411 7.16301 0 15.9999 0Z" fill="#C4302B"/>
<path d="M15.6129 13.0008C16.1189 13.0008 16.515 12.8398 16.805 12.6109C17.093 12.3808 17.237 12.0679 17.237 11.6659V9.23982C17.237 8.88283 17.09 8.58778 16.797 8.36084C16.5019 8.13379 16.1249 8.02087 15.6629 8.02087C15.158 8.02087 14.754 8.12786 14.455 8.34283C14.155 8.55878 14.0049 8.8468 14.0049 9.21181V11.6458C14.0049 12.0457 14.1509 12.3617 14.4429 12.5988C14.7348 12.8358 15.126 13.0008 15.6129 13.0008ZM15.084 9.3299C15.084 9.23785 15.132 9.16392 15.2271 9.10493C15.3231 9.04792 15.4471 9.01991 15.5991 9.01991C15.7651 9.01991 15.8991 9.04792 16.0001 9.10493C16.1022 9.16392 16.1522 9.23796 16.1522 9.3299V11.6359C16.1522 11.7499 16.1022 11.8399 16.0021 11.9049C15.9022 11.9689 15.7682 12.0019 15.5991 12.0019C15.4341 12.0019 15.3061 11.9709 15.2171 11.9059C15.1291 11.8428 15.084 11.7529 15.084 11.6359V9.3299ZM18.961 12.9978C19.139 12.9978 19.32 12.8958 19.5081 12.7939C19.6981 12.6898 19.879 12.5378 20.0531 12.3399V12.8789H20.9981V8.01384H20.0531V11.7068C19.9651 11.8118 19.8671 11.8988 19.7621 11.9678C19.6551 12.0358 19.5672 12.0709 19.4982 12.0709C19.4092 12.0709 19.3442 12.0458 19.3062 11.9929C19.2662 11.9419 19.2442 11.8589 19.2442 11.7448V8.01483H18.3012V12.0799C18.3012 12.3699 18.3582 12.5869 18.4672 12.7309C18.578 12.8758 18.742 12.9978 18.961 12.9978ZM21.709 15.0089H10.289C8.473 15.0089 7.00195 16.4239 7.00195 18.1669V20.837C7.00195 22.581 8.473 23.996 10.289 23.996H21.7089C23.5239 23.996 24.9959 22.581 24.9959 20.837V18.1669C24.996 16.4238 23.524 15.0089 21.709 15.0089ZM11.9879 17.7189H10.978V21.9009H10.0011V17.7189H8.99103V17.0059H11.988C11.9879 17.0059 11.9879 17.7189 11.9879 17.7189ZM15.002 21.9589H13.949V21.5249C13.753 21.685 13.552 21.8079 13.34 21.8899C13.131 21.9759 12.927 22.0169 12.7291 22.0169C12.4851 22.0169 12.3031 21.9579 12.1791 21.839C12.057 21.722 11.9941 21.546 11.9941 21.3109V18.009H13.0471V21.038C13.0471 21.132 13.069 21.198 13.1111 21.24C13.1571 21.2829 13.2301 21.3019 13.3282 21.3019C13.4042 21.3019 13.5041 21.2749 13.6221 21.2189C13.7411 21.1638 13.8501 21.0939 13.9491 21.0069V18.0079H15.0021C15.002 18.0079 15.002 21.9589 15.002 21.9589ZM18.9879 21.2069C18.9879 21.4659 18.9059 21.6629 18.743 21.8019C18.5819 21.9409 18.344 22.0089 18.037 22.0089C17.832 22.0089 17.65 21.9829 17.492 21.9299C17.333 21.877 17.183 21.7949 17.047 21.6819V21.9619H15.996V17.0059H17.047V18.6029C17.189 18.493 17.3379 18.407 17.4929 18.349C17.6519 18.29 17.8119 18.262 17.973 18.262C18.302 18.262 18.5529 18.339 18.726 18.494C18.9009 18.6499 18.9879 18.879 18.9879 19.178C18.9879 19.1778 18.9879 21.2069 18.9879 21.2069ZM22.994 20.0919H21.054V20.8059C21.054 21.0049 21.086 21.1429 21.153 21.2209C21.221 21.2979 21.336 21.3359 21.497 21.3359C21.6671 21.3359 21.7831 21.3029 21.8511 21.2379C21.9171 21.1719 21.9531 21.0288 21.9531 20.8049V20.6329H22.9961V20.8268C22.9961 21.2148 22.8711 21.5069 22.613 21.7038C22.3591 21.8998 21.979 21.9978 21.4741 21.9978C21.0191 21.9978 20.6611 21.8938 20.4001 21.6858C20.1401 21.4799 20.0081 21.1919 20.0081 20.8278V19.1258C20.0081 18.7988 20.1521 18.5288 20.4401 18.3218C20.7271 18.1159 21.0951 18.0128 21.5501 18.0128C22.0141 18.0128 22.3711 18.1088 22.6211 18.2999C22.8701 18.4909 22.9941 18.7668 22.9941 19.1249C22.994 19.1249 22.994 20.0919 22.994 20.0919ZM11.422 13.0119H12.615V10.1049L14.004 6.00488H12.791L12.053 8.80692H11.977L11.203 6.00488H9.99996L11.4219 10.2359C11.422 10.2359 11.422 13.0119 11.422 13.0119ZM17.482 18.8418L17.2609 18.8779L17.046 18.9889V21.2669C17.13 21.3259 17.2129 21.3709 17.293 21.3958L17.544 21.4348C17.672 21.4348 17.765 21.4098 17.825 21.3568C17.884 21.3059 17.915 21.2218 17.915 21.1068V19.2178C17.915 19.0928 17.8799 18.9998 17.806 18.9368C17.73 18.8739 17.623 18.8418 17.482 18.8418Z" fill="white"/>
<path d="M21.5536 18.6758C21.3915 18.6758 21.2765 18.7098 21.2056 18.7798C21.1356 18.8468 21.1016 18.9608 21.1016 19.1198V19.5018H21.9985V19.1198C21.9985 18.9608 21.9615 18.8478 21.8916 18.7798C21.8225 18.7098 21.7076 18.6758 21.5536 18.6758Z" fill="white"/>
</svg>
